<svg id="Layer_1" enable-background="new 0 0 512 512" height="512" viewBox="0 0 512 512" width="512" xmlns="http://www.w3.org/2000/svg"><g><path d="m303.274 74.86h28.86c4.143 0 7.5-3.357 7.5-7.5s-3.357-7.5-7.5-7.5h-21.36v-14.93h21.36c4.143 0 7.5-3.357 7.5-7.5s-3.357-7.5-7.5-7.5h-21.36v-14.93h21.36c4.143 0 7.5-3.357 7.5-7.5s-3.357-7.5-7.5-7.5h-28.86c-4.143 0-7.5 3.357-7.5 7.5v59.86c0 4.143 3.358 7.5 7.5 7.5z"/><path d="m244.53 15h7.43v52.36c0 4.143 3.357 7.5 7.5 7.5s7.5-3.357 7.5-7.5v-52.36h7.431c4.143 0 7.5-3.357 7.5-7.5s-3.357-7.5-7.5-7.5h-29.86c-4.143 0-7.5 3.357-7.5 7.5s3.357 7.5 7.499 7.5z"/><path d="m186.677 74.86h29.86c4.143 0 7.5-3.357 7.5-7.5v-59.86c0-4.143-3.357-7.5-7.5-7.5h-29.86c-4.143 0-7.5 3.357-7.5 7.5v59.86c0 4.143 3.357 7.5 7.5 7.5zm7.5-59.86h14.86v44.86h-14.86z"/><path d="m429.72 467.048h-31.085v-333.261c11.689-3.273 20.284-14.001 20.284-26.695 0-9.501-7.743-17.231-17.261-17.231h-3.023v-22.5c0-4.143-3.357-7.5-7.5-7.5h-21.36v-52.361c0-4.143-3.357-7.5-7.5-7.5s-7.5 3.357-7.5 7.5v59.86c0 4.143 3.357 7.5 7.5 7.5h21.36v15h-249.458v-44.93h14.86v22.43c0 4.143 3.357 7.5 7.5 7.5s7.5-3.357 7.5-7.5v-59.86c0-4.143-3.357-7.5-7.5-7.5s-7.5 3.357-7.5 7.5v22.431h-14.86v-22.431c0-4.143-3.357-7.5-7.5-7.5s-7.5 3.357-7.5 7.5v82.36h-3.023c-9.518 0-17.261 7.73-17.261 17.231 0 12.694 8.595 23.422 20.284 26.695v333.261h-36.897c-9.528 0-17.28 7.73-17.28 17.231 0 15.286 12.481 27.722 27.824 27.722h326.352c15.343 0 27.824-12.436 27.824-27.721 0-9.501-7.752-17.231-17.28-17.231zm-10.544 29.952h-326.352c-7.071 0-12.824-5.706-12.824-12.721 0-1.23 1.022-2.231 2.28-2.231h241.642c4.143 0 7.5-3.357 7.5-7.5s-3.357-7.5-7.5-7.5h-37.517v-129.732c0-4.143-3.357-7.5-7.5-7.5h-40c-4.143 0-7.5 3.357-7.5 7.5v129.731h-97.229v-332.128h27.376c4.143 0 7.5-3.357 7.5-7.5s-3.357-7.5-7.5-7.5h-34.876v-.105c-7.049 0-12.784-5.707-12.784-12.722 0-1.23 1.015-2.231 2.261-2.231h285.505c1.247 0 2.261 1.001 2.261 2.231 0 7.015-5.735 12.722-12.784 12.722v.105h-194.443c-4.143 0-7.5 3.357-7.5 7.5s3.357 7.5 7.5 7.5h186.942v332.129h-24.744c-4.143 0-7.5 3.357-7.5 7.5s3.357 7.5 7.5 7.5h70.83c1.258 0 2.28 1.001 2.28 2.231 0 7.015-5.753 12.721-12.824 12.721zm-147.771-137.184h-25v-15h25zm-25 15h25v92.231h-25z"/><path d="m196.692 150.043h-40c-4.143 0-7.5 3.357-7.5 7.5v60c0 4.143 3.357 7.5 7.5 7.5h40c4.143 0 7.5-3.357 7.5-7.5v-60c0-4.143-3.357-7.5-7.5-7.5zm-7.5 15v15h-25v-15zm-25 45v-15h25v15z"/><path d="m196.692 239.88h-40c-4.143 0-7.5 3.357-7.5 7.5v60c0 4.143 3.357 7.5 7.5 7.5h40c4.143 0 7.5-3.357 7.5-7.5v-60c0-4.143-3.357-7.5-7.5-7.5zm-7.5 15v15h-25v-15zm-25 45v-15h25v15z"/><path d="m196.692 329.816h-40c-4.143 0-7.5 3.357-7.5 7.5v91.782c0 4.143 3.357 7.5 7.5 7.5h40c4.143 0 7.5-3.357 7.5-7.5v-91.782c0-4.142-3.357-7.5-7.5-7.5zm-7.5 15v15h-25v-15zm-25 76.783v-46.782h25v46.782z"/><path d="m278.905 150.043h-40c-4.143 0-7.5 3.357-7.5 7.5v60c0 4.143 3.357 7.5 7.5 7.5h40c4.143 0 7.5-3.357 7.5-7.5v-60c0-4.143-3.357-7.5-7.5-7.5zm-7.5 15v15h-25v-15zm-25 45v-15h25v15z"/><path d="m278.905 239.88h-40c-4.143 0-7.5 3.357-7.5 7.5v60c0 4.143 3.357 7.5 7.5 7.5h40c4.143 0 7.5-3.357 7.5-7.5v-60c0-4.143-3.357-7.5-7.5-7.5zm-7.5 15v15h-25v-15zm-25 45v-15h25v15z"/><path d="m321.405 225.043h40c4.143 0 7.5-3.357 7.5-7.5v-60c0-4.143-3.357-7.5-7.5-7.5h-40c-4.143 0-7.5 3.357-7.5 7.5v60c0 4.143 3.358 7.5 7.5 7.5zm7.5-15v-15h25v15zm25-45v15h-25v-15z"/><path d="m321.405 314.88h40c4.143 0 7.5-3.357 7.5-7.5v-60c0-4.143-3.357-7.5-7.5-7.5h-40c-4.143 0-7.5 3.357-7.5 7.5v60c0 4.142 3.358 7.5 7.5 7.5zm7.5-15v-15h25v15zm25-45v15h-25v-15z"/><path d="m368.905 429.099v-91.782c0-4.143-3.357-7.5-7.5-7.5h-40c-4.143 0-7.5 3.357-7.5 7.5v91.782c0 4.143 3.357 7.5 7.5 7.5h40c4.143 0 7.5-3.358 7.5-7.5zm-15-84.283v15h-25v-15zm-25 76.783v-46.782h25v46.782z"/></g></svg>